<svg id="svg" version="1.1" xmlns="http://www.w3.org/2000/svg" xmlns:xlink="http://www.w3.org/1999/xlink" width="400" height="85.67807351077313" viewBox="0, 0, 400,85.67807351077313"><g id="svgg"><path id="path0" d="M231.167 6.320 C 231.029 6.399,230.448 6.516,229.875 6.581 C 229.302 6.646,228.833 6.767,228.833 6.850 C 228.833 6.932,228.665 7.000,228.458 7.001 C 228.252 7.002,227.896 7.098,227.667 7.216 C 227.438 7.333,226.875 7.568,226.417 7.738 C 225.958 7.907,225.465 8.148,225.320 8.273 C 225.175 8.398,224.980 8.500,224.886 8.500 C 224.792 8.500,224.519 8.682,224.280 8.904 C 224.040 9.126,223.692 9.356,223.505 9.415 C 223.319 9.474,223.167 9.592,223.167 9.678 C 223.167 9.763,223.082 9.833,222.979 9.833 C 222.533 9.833,219.167 13.659,219.167 14.167 C 219.167 14.259,219.098 14.333,219.013 14.333 C 218.929 14.333,218.810 14.558,218.750 14.833 C 218.690 15.108,218.571 15.333,218.487 15.333 C 218.402 15.333,218.333 15.427,218.332 15.542 C 218.332 15.656,218.222 15.959,218.089 16.215 C 217.955 16.471,217.797 16.940,217.738 17.257 C 217.678 17.574,217.570 17.833,217.497 17.833 C 217.424 17.833,217.311 18.227,217.245 18.708 C 217.180 19.190,217.058 19.627,216.974 19.680 C 216.890 19.734,216.775 20.427,216.719 21.222 C 216.663 22.017,216.553 22.667,216.475 22.667 C 216.288 22.667,216.291 28.621,216.478 28.737 C 216.558 28.786,216.676 29.503,216.741 30.330 C 216.805 31.157,216.920 31.833,216.996 31.833 C 217.072 31.833,217.186 32.283,217.250 32.833 C 217.314 33.383,217.425 33.833,217.498 33.833 C 217.570 33.833,217.678 34.093,217.738 34.410 C 217.797 34.727,217.955 35.195,218.089 35.451 C 218.222 35.707,218.332 36.010,218.332 36.125 C 218.333 36.240,218.400 36.333,218.481 36.333 C 218.563 36.333,218.677 36.588,218.736 36.900 C 218.794 37.212,218.953 37.558,219.088 37.670 C 219.223 37.782,219.333 37.977,219.333 38.104 C 219.333 38.230,219.400 38.333,219.482 38.333 C 219.564 38.333,219.678 38.521,219.735 38.750 C 219.793 38.979,219.913 39.167,220.003 39.167 C 220.093 39.167,220.168 39.260,220.170 39.375 C 220.172 39.490,220.491 39.937,220.879 40.369 C 221.266 40.802,221.733 41.330,221.917 41.543 C 222.100 41.757,222.512 42.115,222.833 42.340 C 223.154 42.566,223.463 42.813,223.519 42.890 C 223.643 43.059,224.305 43.454,224.708 43.600 C 224.869 43.658,225.000 43.766,225.000 43.840 C 225.000 43.913,225.225 44.023,225.500 44.083 C 225.775 44.144,226.000 44.256,226.000 44.332 C 226.000 44.408,226.300 44.521,226.667 44.583 C 227.033 44.645,227.333 44.756,227.333 44.829 C 227.333 44.902,227.765 45.015,228.292 45.081 C 228.819 45.147,229.304 45.287,229.369 45.392 C 229.533 45.656,238.960 45.664,239.131 45.401 C 239.196 45.300,239.544 45.172,239.903 45.115 C 240.262 45.058,240.600 44.945,240.653 44.863 C 240.706 44.782,241.031 44.663,241.375 44.600 C 241.719 44.537,242.000 44.419,242.000 44.339 C 242.000 44.259,242.225 44.144,242.500 44.083 C 242.775 44.023,243.000 43.904,243.000 43.820 C 243.000 43.736,243.115 43.667,243.255 43.667 C 243.396 43.667,243.554 43.554,243.606 43.417 C 243.659 43.279,243.791 43.167,243.899 43.167 C 244.286 43.167,246.997 40.726,246.999 40.375 C 247.000 40.260,247.057 40.167,247.127 40.167 C 247.197 40.167,247.440 39.867,247.667 39.500 C 247.893 39.133,248.130 38.833,248.193 38.833 C 248.256 38.833,248.356 38.608,248.417 38.333 C 248.477 38.058,248.590 37.833,248.667 37.833 C 248.744 37.833,248.856 37.608,248.917 37.333 C 248.977 37.058,249.092 36.833,249.172 36.833 C 249.253 36.833,249.367 36.571,249.428 36.250 C 249.488 35.929,249.595 35.667,249.667 35.667 C 249.738 35.667,249.849 35.386,249.913 35.042 C 249.978 34.699,250.090 34.380,250.162 34.334 C 250.234 34.288,250.345 33.866,250.409 33.398 C 250.534 32.479,250.400 32.342,249.375 32.336 C 249.169 32.334,249.000 32.267,249.000 32.186 C 249.000 32.105,248.569 31.985,248.042 31.919 C 247.515 31.853,247.046 31.740,247.000 31.667 C 246.954 31.594,246.504 31.483,246.000 31.421 C 244.962 31.294,244.804 31.464,244.569 32.958 C 244.508 33.348,244.392 33.667,244.312 33.667 C 244.232 33.667,244.166 33.760,244.165 33.875 C 244.152 35.116,241.406 38.501,239.875 39.163 C 239.669 39.252,239.500 39.384,239.500 39.455 C 239.500 39.610,238.782 39.935,238.083 40.097 C 237.808 40.161,237.478 40.296,237.349 40.398 C 237.024 40.656,231.136 40.652,230.817 40.394 C 230.689 40.290,230.321 40.150,230.000 40.082 C 229.679 40.014,229.379 39.911,229.333 39.852 C 229.287 39.794,228.856 39.566,228.375 39.345 C 227.894 39.124,227.500 38.881,227.500 38.805 C 227.500 38.729,227.426 38.667,227.335 38.667 C 227.116 38.667,226.611 38.242,225.773 37.352 C 225.394 36.950,225.004 36.537,224.907 36.435 C 224.811 36.333,224.682 36.119,224.621 35.958 C 224.560 35.798,224.439 35.667,224.352 35.667 C 224.265 35.667,224.144 35.442,224.083 35.167 C 224.023 34.892,223.908 34.667,223.828 34.667 C 223.747 34.667,223.632 34.403,223.572 34.081 C 223.512 33.760,223.402 33.459,223.329 33.414 C 223.256 33.369,223.142 33.013,223.077 32.624 C 223.012 32.235,222.897 31.877,222.821 31.829 C 222.746 31.780,222.631 31.218,222.567 30.579 C 222.503 29.940,222.380 29.371,222.295 29.315 C 222.082 29.176,222.084 22.719,222.297 22.456 C 222.388 22.343,222.516 21.781,222.581 21.208 C 222.646 20.635,222.761 20.128,222.835 20.082 C 222.910 20.036,223.022 19.699,223.083 19.333 C 223.145 18.968,223.264 18.626,223.348 18.574 C 223.432 18.523,223.500 18.362,223.500 18.217 C 223.500 17.904,224.161 16.511,224.458 16.196 C 224.573 16.075,224.667 15.919,224.667 15.848 C 224.667 15.611,227.013 13.333,227.258 13.333 C 227.391 13.333,227.500 13.274,227.500 13.201 C 227.500 13.025,229.447 12.046,230.083 11.901 C 230.358 11.839,230.689 11.704,230.817 11.602 C 231.144 11.343,237.529 11.347,237.849 11.606 C 237.978 11.710,238.327 11.847,238.625 11.911 C 238.923 11.974,239.167 12.090,239.167 12.167 C 239.167 12.244,239.392 12.356,239.667 12.417 C 239.942 12.477,240.167 12.577,240.168 12.638 C 240.168 12.700,240.448 12.938,240.788 13.167 C 241.519 13.659,242.000 14.111,242.000 14.308 C 242.000 14.385,242.150 14.584,242.333 14.750 C 242.517 14.916,242.667 15.153,242.667 15.276 C 242.667 15.399,242.740 15.500,242.830 15.500 C 242.920 15.500,243.041 15.688,243.098 15.917 C 243.156 16.146,243.262 16.333,243.333 16.333 C 243.405 16.333,243.515 16.539,243.578 16.790 C 243.642 17.041,243.747 17.285,243.812 17.332 C 243.878 17.378,244.004 17.717,244.093 18.083 L 244.254 18.750 245.494 18.705 C 246.176 18.680,246.775 18.596,246.825 18.517 C 246.876 18.438,247.385 18.320,247.958 18.254 C 248.531 18.188,249.000 18.066,249.000 17.984 C 249.000 17.901,249.188 17.833,249.417 17.833 C 249.782 17.833,249.833 17.761,249.833 17.250 C 249.833 16.929,249.768 16.667,249.688 16.667 C 249.608 16.667,249.495 16.367,249.436 16.000 C 249.377 15.633,249.255 15.333,249.165 15.333 C 249.074 15.333,249.000 15.223,249.000 15.088 C 249.000 14.854,248.367 13.506,248.176 13.333 C 248.125 13.287,247.936 12.960,247.755 12.606 C 247.574 12.251,247.331 11.925,247.213 11.880 C 247.096 11.835,247.000 11.703,247.000 11.587 C 247.000 11.029,243.137 7.936,242.000 7.584 C 241.771 7.513,241.435 7.353,241.255 7.228 C 241.074 7.102,240.755 7.000,240.546 7.000 C 240.337 7.000,240.167 6.932,240.167 6.850 C 240.167 6.767,239.717 6.647,239.166 6.583 C 238.616 6.519,238.124 6.400,238.073 6.317 C 237.955 6.126,231.501 6.128,231.167 6.320 M102.833 25.925 L 102.833 45.188 112.590 45.136 C 119.604 45.098,122.379 45.030,122.465 44.895 C 122.530 44.792,122.977 44.653,123.458 44.588 C 123.940 44.522,124.333 44.401,124.333 44.318 C 124.333 44.235,124.465 44.166,124.625 44.166 C 124.785 44.165,125.131 44.053,125.394 43.916 C 125.657 43.779,125.970 43.667,126.090 43.667 C 126.211 43.667,126.409 43.572,126.530 43.456 C 126.651 43.341,126.938 43.154,127.167 43.041 C 127.396 42.928,127.730 42.741,127.909 42.626 C 128.326 42.359,130.667 40.065,130.667 39.925 C 130.667 39.867,130.813 39.662,130.992 39.471 C 131.170 39.279,131.436 38.888,131.582 38.602 C 131.727 38.317,132.028 37.783,132.249 37.417 C 132.471 37.050,132.655 36.619,132.659 36.458 C 132.663 36.298,132.735 36.167,132.819 36.167 C 132.902 36.167,133.021 35.867,133.083 35.500 C 133.145 35.133,133.260 34.833,133.338 34.833 C 133.416 34.833,133.530 34.496,133.592 34.083 C 133.654 33.671,133.765 33.333,133.839 33.333 C 133.913 33.333,134.027 32.827,134.092 32.208 C 134.158 31.590,134.295 31.030,134.397 30.964 C 134.528 30.881,134.583 29.343,134.583 25.833 C 134.583 22.324,134.528 20.786,134.397 20.702 C 134.295 20.637,134.158 20.077,134.092 19.458 C 134.027 18.840,133.914 18.333,133.842 18.333 C 133.769 18.333,133.660 17.958,133.599 17.500 C 133.538 17.042,133.416 16.667,133.328 16.667 C 133.239 16.667,133.167 16.584,133.167 16.484 C 133.167 16.279,132.818 15.448,132.276 14.362 C 131.634 13.074,131.484 12.833,131.324 12.833 C 131.238 12.833,131.165 12.740,131.163 12.625 C 131.159 12.354,129.353 10.335,129.106 10.326 C 129.002 10.322,128.733 10.097,128.508 9.826 C 128.283 9.555,128.002 9.333,127.883 9.333 C 127.764 9.333,127.667 9.270,127.667 9.193 C 127.667 9.116,127.385 8.909,127.042 8.735 C 126.698 8.560,126.379 8.371,126.333 8.314 C 126.287 8.258,126.063 8.154,125.833 8.083 C 125.604 8.013,125.373 7.888,125.320 7.805 C 125.267 7.722,124.929 7.608,124.570 7.552 C 124.211 7.495,123.877 7.388,123.828 7.315 C 123.563 6.916,120.808 6.777,112.042 6.721 L 102.833 6.661 102.833 25.925 M141.111 6.778 C 140.946 6.942,140.976 32.132,141.141 32.234 C 141.219 32.282,141.330 33.051,141.389 33.942 C 141.447 34.833,141.571 35.638,141.664 35.731 C 141.757 35.824,141.833 36.091,141.833 36.325 C 141.831 36.848,142.350 38.333,142.533 38.333 C 142.606 38.333,142.667 38.484,142.667 38.667 C 142.667 39.344,143.595 40.764,144.898 42.081 C 145.809 43.002,146.164 43.282,146.833 43.609 C 146.971 43.676,147.182 43.829,147.304 43.949 C 147.425 44.069,147.631 44.167,147.762 44.167 C 147.893 44.167,148.000 44.235,148.000 44.319 C 148.000 44.402,148.300 44.521,148.667 44.583 C 149.033 44.645,149.333 44.756,149.333 44.829 C 149.333 44.902,149.690 45.016,150.125 45.081 C 150.560 45.146,150.970 45.286,151.036 45.391 C 151.202 45.661,161.294 45.665,161.464 45.395 C 161.530 45.292,161.977 45.153,162.458 45.088 C 162.940 45.022,163.333 44.907,163.333 44.831 C 163.333 44.755,163.558 44.644,163.833 44.583 C 164.108 44.523,164.333 44.410,164.333 44.333 C 164.333 44.256,164.558 44.144,164.833 44.083 C 165.108 44.023,165.333 43.904,165.333 43.820 C 165.333 43.736,165.440 43.667,165.571 43.667 C 165.702 43.667,165.923 43.553,166.062 43.414 C 166.201 43.275,166.675 42.886,167.116 42.550 C 167.556 42.214,168.040 41.784,168.191 41.594 C 168.342 41.405,168.608 41.087,168.783 40.888 C 168.958 40.688,169.247 40.238,169.425 39.888 C 169.604 39.537,169.806 39.225,169.875 39.194 C 169.944 39.164,170.047 38.845,170.105 38.486 C 170.162 38.127,170.270 37.833,170.344 37.833 C 170.419 37.833,170.531 37.477,170.594 37.042 C 170.657 36.606,170.777 36.164,170.861 36.058 C 170.945 35.952,171.059 35.221,171.115 34.433 C 171.171 33.645,171.280 33.000,171.358 33.000 C 171.436 33.000,171.500 27.075,171.500 19.833 L 171.500 6.667 168.768 6.667 C 166.430 6.667,166.021 6.705,165.934 6.930 C 165.879 7.075,165.827 12.794,165.819 19.639 C 165.804 33.174,165.757 34.011,164.900 35.942 C 164.772 36.231,164.667 36.549,164.667 36.650 C 164.667 36.751,164.597 36.833,164.511 36.833 C 164.426 36.833,164.303 36.999,164.239 37.203 C 164.008 37.930,161.851 39.667,161.178 39.667 C 160.989 39.667,160.833 39.737,160.833 39.823 C 160.833 39.909,160.477 40.026,160.042 40.082 C 159.606 40.138,159.120 40.255,158.961 40.342 C 158.598 40.540,153.500 40.552,153.500 40.355 C 153.500 40.275,153.108 40.158,152.628 40.094 C 152.149 40.030,151.717 39.927,151.670 39.864 C 151.622 39.801,151.288 39.600,150.927 39.417 C 149.880 38.885,148.167 37.321,148.167 36.897 C 148.167 36.770,148.098 36.667,148.013 36.667 C 147.929 36.667,147.810 36.442,147.750 36.167 C 147.690 35.892,147.578 35.667,147.502 35.667 C 147.427 35.667,147.311 35.273,147.245 34.792 C 147.180 34.310,147.042 33.863,146.938 33.798 C 146.802 33.712,146.736 29.974,146.699 20.173 L 146.647 6.667 143.935 6.667 C 142.443 6.667,141.172 6.717,141.111 6.778 M179.667 25.917 L 179.667 45.167 182.417 45.167 L 185.167 45.167 185.167 36.724 L 185.167 28.280 189.375 28.394 C 191.853 28.461,193.606 28.575,193.639 28.671 C 193.669 28.760,193.811 28.833,193.954 28.833 C 194.657 28.833,196.011 29.699,197.061 30.819 C 197.440 31.224,197.881 31.672,198.042 31.815 C 198.202 31.957,198.333 32.143,198.333 32.226 C 198.333 32.310,198.512 32.544,198.731 32.747 C 198.949 32.949,199.179 33.276,199.242 33.474 C 199.304 33.672,199.426 33.833,199.511 33.833 C 199.597 33.833,199.667 33.911,199.667 34.007 C 199.667 34.204,200.352 35.221,200.542 35.306 C 200.610 35.336,200.667 35.433,200.667 35.521 C 200.667 35.674,201.308 36.662,201.519 36.833 C 201.576 36.879,201.674 37.085,201.739 37.292 C 201.803 37.498,201.926 37.667,202.011 37.667 C 202.097 37.667,202.167 37.779,202.167 37.917 C 202.167 38.054,202.242 38.167,202.333 38.167 C 202.425 38.167,202.500 38.282,202.500 38.422 C 202.500 38.562,202.612 38.720,202.750 38.773 C 202.887 38.826,203.000 38.968,203.000 39.089 C 203.000 39.210,203.103 39.412,203.228 39.538 C 203.353 39.663,203.513 39.944,203.582 40.162 C 203.651 40.379,203.836 40.696,203.994 40.865 C 204.151 41.034,204.386 41.377,204.515 41.628 C 204.644 41.878,204.844 42.182,204.958 42.304 C 205.073 42.425,205.167 42.599,205.167 42.690 C 205.167 42.782,205.260 42.962,205.375 43.089 C 205.846 43.614,205.965 43.793,206.074 44.138 C 206.137 44.337,206.250 44.500,206.325 44.500 C 206.400 44.500,206.500 44.650,206.548 44.833 C 206.682 45.344,213.500 45.356,213.500 44.845 C 213.500 44.668,213.405 44.425,213.290 44.304 C 213.174 44.182,212.987 43.896,212.874 43.667 C 212.613 43.136,212.307 42.660,212.042 42.370 C 211.927 42.245,211.833 42.068,211.833 41.976 C 211.833 41.885,211.740 41.705,211.625 41.577 C 211.135 41.031,211.000 40.838,211.000 40.686 C 211.000 40.597,210.906 40.422,210.792 40.297 C 210.566 40.050,210.494 39.938,209.556 38.375 C 209.212 37.802,208.871 37.333,208.799 37.333 C 208.726 37.333,208.667 37.232,208.667 37.109 C 208.667 36.985,208.517 36.711,208.333 36.500 C 208.150 36.289,208.000 36.021,208.000 35.905 C 208.000 35.789,207.944 35.669,207.875 35.639 C 207.685 35.555,207.000 34.537,207.000 34.340 C 207.000 34.245,206.926 34.167,206.837 34.167 C 206.747 34.167,206.626 33.979,206.568 33.750 C 206.511 33.521,206.416 33.333,206.357 33.332 C 206.298 33.332,206.063 33.050,205.833 32.707 C 205.179 31.728,205.163 31.709,203.653 30.189 C 202.866 29.398,202.003 28.637,201.736 28.500 C 200.736 27.986,200.823 27.500,201.914 27.500 C 202.145 27.500,202.333 27.432,202.333 27.349 C 202.333 27.266,202.708 27.146,203.167 27.083 C 203.625 27.020,204.000 26.909,204.000 26.836 C 204.000 26.763,204.262 26.655,204.583 26.594 C 204.904 26.534,205.167 26.421,205.167 26.344 C 205.167 26.266,205.354 26.156,205.583 26.098 C 205.813 26.041,206.000 25.920,206.000 25.830 C 206.000 25.740,206.115 25.667,206.255 25.667 C 206.396 25.667,206.554 25.554,206.606 25.417 C 206.659 25.279,206.804 25.167,206.928 25.167 C 207.163 25.167,207.603 24.750,208.220 23.942 C 208.420 23.681,208.705 23.343,208.855 23.192 C 209.185 22.856,209.731 21.793,210.124 20.717 C 210.495 19.703,210.565 13.994,210.208 13.875 C 210.094 13.837,210.000 13.682,210.000 13.531 C 210.000 13.156,208.985 11.116,208.716 10.950 C 208.597 10.877,208.500 10.739,208.500 10.645 C 208.500 10.416,206.576 8.500,206.347 8.500 C 206.248 8.500,206.167 8.431,206.167 8.347 C 206.167 8.262,205.942 8.144,205.667 8.083 C 205.392 8.023,205.167 7.910,205.167 7.833 C 205.167 7.756,204.923 7.641,204.625 7.577 C 204.327 7.514,204.003 7.397,203.904 7.318 C 203.806 7.239,203.187 7.124,202.529 7.063 C 201.872 7.002,201.333 6.888,201.333 6.809 C 201.333 6.731,196.458 6.667,190.500 6.667 L 179.667 6.667 179.667 25.917 M256.434 6.930 C 256.379 7.075,256.333 15.738,256.333 26.180 L 256.333 45.167 259.167 45.167 L 262.000 45.167 262.000 36.167 L 262.000 27.167 271.667 27.167 L 281.333 27.167 281.333 36.167 L 281.333 45.167 284.083 45.167 L 286.833 45.167 286.833 25.917 L 286.833 6.667 284.083 6.667 L 281.333 6.667 281.333 14.583 L 281.333 22.500 271.667 22.500 L 262.000 22.500 262.000 14.583 L 262.000 6.667 259.268 6.667 C 256.930 6.667,256.521 6.705,256.434 6.930 M294.667 25.917 L 294.667 45.167 309.083 45.167 L 323.500 45.167 323.500 42.833 L 323.500 40.500 311.917 40.500 L 300.333 40.500 300.333 34.167 L 300.333 27.833 310.833 27.833 L 321.333 27.833 321.333 25.417 L 321.333 23.000 310.833 23.000 L 300.333 23.000 300.333 17.250 L 300.333 11.500 311.583 11.500 L 322.833 11.500 322.833 9.083 L 322.833 6.667 308.750 6.667 L 294.667 6.667 294.667 25.917 M330.167 25.917 L 330.167 45.167 332.917 45.167 L 335.667 45.167 335.667 36.723 L 335.667 28.280 339.875 28.391 C 342.407 28.458,344.105 28.568,344.139 28.668 C 344.169 28.759,344.305 28.833,344.441 28.833 C 345.429 28.833,348.746 31.439,349.075 32.473 C 349.132 32.654,349.289 32.845,349.423 32.896 C 349.557 32.947,349.667 33.070,349.667 33.168 C 349.667 33.267,349.744 33.438,349.840 33.549 C 350.204 33.972,352.167 37.037,352.167 37.181 C 352.167 37.265,352.228 37.333,352.304 37.333 C 352.379 37.333,352.609 37.671,352.815 38.083 C 353.021 38.496,353.252 38.833,353.327 38.833 C 353.402 38.833,353.511 39.021,353.568 39.250 C 353.626 39.479,353.747 39.667,353.837 39.667 C 353.926 39.667,354.000 39.779,354.000 39.917 C 354.000 40.054,354.075 40.167,354.167 40.167 C 354.258 40.167,354.333 40.245,354.333 40.340 C 354.333 40.537,355.019 41.555,355.208 41.639 C 355.277 41.669,355.333 41.795,355.333 41.919 C 355.333 42.042,355.428 42.242,355.544 42.363 C 355.659 42.484,355.846 42.771,355.959 43.000 C 356.220 43.531,356.526 44.007,356.792 44.297 C 356.906 44.422,357.000 44.623,357.000 44.744 C 357.000 45.120,357.425 45.167,360.847 45.167 C 364.056 45.167,364.167 45.156,364.167 44.833 C 364.167 44.650,364.109 44.500,364.038 44.500 C 363.968 44.500,363.725 44.163,363.500 43.750 C 363.275 43.337,363.041 43.000,362.980 43.000 C 362.919 43.000,362.822 42.813,362.765 42.583 C 362.707 42.354,362.587 42.167,362.497 42.167 C 362.407 42.167,362.333 42.083,362.333 41.981 C 362.333 41.878,361.977 41.273,361.542 40.634 C 361.106 39.996,360.643 39.274,360.513 39.030 C 360.383 38.786,360.177 38.486,360.055 38.364 C 359.933 38.243,359.833 38.036,359.833 37.905 C 359.833 37.774,359.763 37.667,359.678 37.667 C 359.592 37.667,359.470 37.501,359.406 37.299 C 359.342 37.097,359.206 36.838,359.103 36.722 C 358.647 36.207,358.534 36.036,358.426 35.696 C 358.363 35.496,358.241 35.333,358.155 35.333 C 358.070 35.333,358.000 35.218,358.000 35.078 C 358.000 34.938,357.894 34.782,357.765 34.733 C 357.636 34.683,357.484 34.460,357.429 34.238 C 357.373 34.015,357.253 33.833,357.163 33.833 C 357.074 33.833,357.000 33.751,357.000 33.651 C 357.000 33.551,356.869 33.297,356.708 33.087 C 356.548 32.877,356.304 32.530,356.167 32.315 C 355.697 31.581,352.584 28.549,352.167 28.419 C 351.280 28.142,351.469 27.500,352.437 27.500 C 352.747 27.500,353.000 27.430,353.000 27.344 C 353.000 27.257,353.337 27.136,353.750 27.075 C 354.162 27.013,354.500 26.896,354.500 26.814 C 354.500 26.733,354.617 26.667,354.759 26.667 C 355.127 26.667,356.500 26.020,356.500 25.847 C 356.500 25.768,356.688 25.656,356.917 25.598 C 357.146 25.541,357.333 25.420,357.333 25.330 C 357.333 25.240,357.417 25.167,357.520 25.167 C 357.720 25.167,359.000 23.948,359.000 23.758 C 359.000 23.695,359.094 23.538,359.208 23.411 C 359.717 22.843,359.826 22.669,359.928 22.264 C 359.987 22.027,360.100 21.833,360.177 21.833 C 360.255 21.833,360.367 21.571,360.428 21.250 C 360.488 20.929,360.604 20.667,360.685 20.667 C 360.767 20.667,360.833 20.367,360.833 20.000 C 360.833 19.633,360.908 19.333,361.000 19.333 C 361.102 19.333,361.167 18.528,361.167 17.250 C 361.167 15.972,361.102 15.167,361.000 15.167 C 360.908 15.167,360.833 14.867,360.833 14.500 C 360.833 14.133,360.765 13.833,360.681 13.833 C 360.598 13.833,360.479 13.533,360.417 13.167 C 360.355 12.800,360.242 12.500,360.165 12.500 C 360.089 12.500,359.977 12.275,359.917 12.000 C 359.856 11.725,359.738 11.500,359.653 11.500 C 359.569 11.500,359.500 11.385,359.500 11.245 C 359.500 11.104,359.387 10.946,359.250 10.894 C 359.113 10.841,359.000 10.706,359.000 10.595 C 359.000 9.913,355.735 7.500,354.812 7.500 C 354.677 7.500,354.490 7.423,354.397 7.330 C 354.303 7.236,353.723 7.113,353.108 7.055 C 352.493 6.998,351.950 6.887,351.901 6.809 C 351.853 6.731,346.943 6.667,340.990 6.667 L 330.167 6.667 330.167 25.917 M368.667 25.917 L 368.667 45.167 383.167 45.167 L 397.667 45.167 397.667 42.833 L 397.667 40.500 386.000 40.500 L 374.333 40.500 374.333 34.168 L 374.333 27.836 384.792 27.793 L 395.250 27.750 395.296 25.375 L 395.342 23.000 384.838 23.000 L 374.333 23.000 374.333 17.250 L 374.333 11.500 385.583 11.500 L 396.833 11.500 396.833 9.083 L 396.833 6.667 382.750 6.667 L 368.667 6.667 368.667 25.917 M115.735 11.643 C 115.784 11.721,117.025 11.824,118.493 11.871 C 119.962 11.918,121.258 12.031,121.373 12.123 C 121.489 12.215,121.865 12.341,122.208 12.402 C 122.552 12.464,122.833 12.581,122.833 12.661 C 122.833 12.741,123.058 12.856,123.333 12.917 C 123.608 12.977,123.834 13.077,123.834 13.138 C 123.835 13.200,124.116 13.438,124.458 13.667 C 125.117 14.108,125.833 14.802,125.833 15.000 C 125.833 15.065,126.002 15.306,126.208 15.536 C 126.814 16.211,127.218 16.938,127.995 18.750 C 128.783 20.587,129.221 30.034,128.557 30.854 C 128.454 30.980,128.318 31.477,128.253 31.958 C 128.188 32.440,128.077 32.833,128.006 32.833 C 127.934 32.833,127.828 33.133,127.769 33.500 C 127.711 33.867,127.589 34.167,127.498 34.167 C 127.407 34.167,127.333 34.252,127.333 34.357 C 127.333 34.657,126.606 36.069,126.375 36.217 C 126.260 36.290,126.167 36.425,126.167 36.518 C 126.167 36.750,124.588 38.333,124.356 38.333 C 124.252 38.333,124.167 38.408,124.167 38.500 C 124.167 38.592,124.060 38.667,123.929 38.667 C 123.798 38.667,123.591 38.760,123.470 38.875 C 123.226 39.106,122.311 39.485,121.667 39.623 C 121.438 39.671,121.154 39.787,121.037 39.880 C 120.920 39.973,119.738 40.086,118.412 40.131 C 117.085 40.176,116.000 40.277,116.000 40.356 C 116.000 40.435,114.275 40.500,112.167 40.500 L 108.333 40.500 108.333 26.000 L 108.333 11.500 111.990 11.500 C 114.001 11.500,115.687 11.564,115.735 11.643 M196.667 11.643 C 196.667 11.722,197.545 11.826,198.618 11.873 C 199.842 11.927,200.593 12.029,200.632 12.146 C 200.666 12.249,200.808 12.333,200.947 12.333 C 201.697 12.333,204.152 14.210,204.163 14.792 C 204.165 14.906,204.236 15.000,204.321 15.000 C 204.406 15.000,204.528 15.412,204.591 15.917 C 204.654 16.421,204.771 16.833,204.853 16.833 C 205.043 16.833,205.046 17.785,204.855 17.903 C 204.776 17.952,204.661 18.369,204.600 18.830 C 204.538 19.290,204.416 19.667,204.328 19.667 C 204.239 19.667,204.167 19.768,204.167 19.891 C 204.167 20.015,204.035 20.271,203.875 20.461 C 203.715 20.651,203.442 21.000,203.268 21.236 C 203.095 21.473,202.851 21.667,202.727 21.667 C 202.602 21.667,202.500 21.740,202.500 21.830 C 202.500 21.920,202.313 22.041,202.083 22.098 C 201.854 22.156,201.667 22.266,201.667 22.344 C 201.667 22.421,201.385 22.537,201.042 22.600 C 200.698 22.663,200.369 22.788,200.311 22.878 C 200.253 22.967,199.182 23.080,197.931 23.128 C 196.680 23.175,195.617 23.279,195.569 23.357 C 195.520 23.436,193.160 23.500,190.323 23.500 L 185.167 23.500 185.167 17.500 L 185.167 11.500 190.917 11.500 C 194.079 11.500,196.667 11.565,196.667 11.643 M347.235 11.643 C 347.284 11.721,348.151 11.825,349.162 11.873 C 350.174 11.921,351.094 12.035,351.209 12.127 C 351.323 12.219,351.660 12.347,351.958 12.411 C 352.256 12.474,352.500 12.596,352.500 12.680 C 352.500 12.764,352.594 12.833,352.709 12.833 C 353.127 12.833,354.838 14.649,354.947 15.209 C 355.005 15.506,355.131 15.801,355.227 15.864 C 355.449 16.010,355.440 18.829,355.217 18.975 C 355.126 19.035,354.999 19.296,354.936 19.556 C 354.814 20.052,354.726 20.184,353.917 21.075 C 353.327 21.723,352.220 22.439,351.556 22.602 C 351.296 22.666,351.037 22.788,350.981 22.874 C 350.925 22.959,349.818 23.072,348.523 23.123 C 347.227 23.174,346.167 23.280,346.167 23.358 C 346.167 23.436,343.804 23.500,340.917 23.500 L 335.667 23.500 335.667 17.500 L 335.667 11.500 341.407 11.500 C 344.564 11.500,347.187 11.564,347.235 11.643 M102.500 70.488 L 102.500 80.000 107.657 80.000 C 110.493 80.000,112.855 79.934,112.905 79.853 C 112.955 79.771,113.334 79.654,113.748 79.592 C 114.162 79.530,114.500 79.409,114.500 79.323 C 114.500 79.237,114.615 79.167,114.755 79.167 C 114.896 79.167,115.054 79.054,115.106 78.917 C 115.159 78.779,115.307 78.667,115.434 78.667 C 115.562 78.667,115.667 78.588,115.667 78.492 C 115.667 78.396,115.844 78.152,116.060 77.950 C 116.277 77.749,116.512 77.396,116.583 77.167 C 116.654 76.938,116.787 76.702,116.878 76.643 C 117.420 76.295,116.942 71.667,116.365 71.667 C 116.299 71.667,116.172 71.504,116.081 71.305 C 115.991 71.107,115.767 70.863,115.583 70.764 C 115.400 70.664,115.190 70.490,115.117 70.375 C 115.043 70.260,114.837 70.167,114.658 70.167 C 114.174 70.167,114.260 69.910,115.000 69.147 C 115.367 68.769,115.667 68.363,115.667 68.244 C 115.667 68.125,115.760 67.997,115.875 67.958 C 116.026 67.908,116.083 67.346,116.083 65.917 C 116.083 64.487,116.026 63.925,115.875 63.875 C 115.760 63.837,115.667 63.705,115.667 63.581 C 115.667 63.458,115.573 63.255,115.458 63.130 C 115.344 63.005,115.170 62.761,115.072 62.587 C 114.974 62.414,114.749 62.192,114.572 62.094 C 114.395 61.997,114.212 61.877,114.167 61.829 C 113.478 61.109,113.289 61.085,107.792 61.029 L 102.500 60.975 102.500 70.488 M139.500 61.183 C 139.500 61.343,141.268 64.115,141.509 64.333 C 141.559 64.379,141.782 64.717,142.004 65.083 C 142.398 65.737,142.562 65.966,142.936 66.389 C 143.039 66.504,143.175 66.764,143.239 66.966 C 143.303 67.168,143.426 67.333,143.511 67.333 C 143.597 67.333,143.667 67.448,143.667 67.589 C 143.667 67.729,143.772 67.884,143.902 67.934 C 144.031 67.984,144.182 68.206,144.238 68.429 C 144.294 68.651,144.413 68.833,144.503 68.833 C 144.593 68.833,144.667 68.948,144.667 69.089 C 144.667 69.229,144.772 69.384,144.902 69.434 C 145.031 69.484,145.182 69.706,145.238 69.929 C 145.294 70.151,145.413 70.333,145.503 70.333 C 145.593 70.333,145.667 70.411,145.667 70.507 C 145.667 70.704,146.352 71.721,146.542 71.806 C 146.610 71.836,146.667 73.692,146.667 75.931 L 146.667 80.000 148.167 80.000 L 149.667 80.000 149.667 75.934 C 149.667 72.474,149.704 71.855,149.917 71.773 C 150.054 71.720,150.167 71.599,150.167 71.503 C 150.167 71.351,151.343 69.613,151.827 69.049 C 151.922 68.938,152.000 68.804,152.000 68.750 C 152.000 68.590,152.734 67.593,152.958 67.450 C 153.073 67.377,153.167 67.208,153.167 67.075 C 153.167 66.942,153.240 66.833,153.330 66.833 C 153.420 66.833,153.539 66.651,153.595 66.429 C 153.651 66.206,153.802 65.984,153.932 65.934 C 154.061 65.884,154.167 65.729,154.167 65.589 C 154.167 65.448,154.226 65.333,154.298 65.333 C 154.370 65.333,154.680 64.921,154.985 64.417 C 155.291 63.913,155.605 63.500,155.684 63.500 C 155.763 63.500,155.873 63.318,155.929 63.095 C 155.984 62.873,156.136 62.650,156.265 62.601 C 156.394 62.551,156.500 62.428,156.500 62.327 C 156.500 62.226,156.612 62.030,156.750 61.893 C 156.887 61.755,157.000 61.498,157.000 61.321 C 157.000 60.857,153.883 60.831,153.495 61.292 C 153.029 61.847,152.218 63.124,152.067 63.542 C 152.009 63.702,151.895 63.833,151.814 63.833 C 151.733 63.833,151.667 63.948,151.667 64.089 C 151.667 64.229,151.561 64.384,151.432 64.434 C 151.302 64.484,151.151 64.706,151.095 64.929 C 151.039 65.151,150.920 65.333,150.830 65.333 C 150.740 65.333,150.667 65.411,150.667 65.507 C 150.667 65.655,150.084 66.582,149.833 66.833 C 149.701 66.965,149.350 67.545,149.126 68.000 C 149.013 68.229,148.826 68.516,148.710 68.637 C 148.595 68.758,148.498 68.983,148.495 69.137 C 148.491 69.369,148.457 69.360,148.297 69.083 C 148.192 68.900,148.006 68.651,147.886 68.530 C 147.765 68.409,147.667 68.202,147.667 68.071 C 147.667 67.940,147.600 67.833,147.518 67.833 C 147.436 67.833,147.322 67.646,147.265 67.417 C 147.207 67.188,147.087 67.000,146.997 67.000 C 146.907 67.000,146.833 66.885,146.833 66.745 C 146.833 66.604,146.728 66.449,146.598 66.399 C 146.469 66.350,146.318 66.127,146.262 65.905 C 146.206 65.682,146.087 65.500,145.997 65.500 C 145.907 65.500,145.833 65.385,145.833 65.245 C 145.833 65.104,145.725 64.948,145.594 64.898 C 145.462 64.847,145.306 64.587,145.247 64.319 C 145.188 64.052,145.085 63.833,145.017 63.833 C 144.950 63.833,144.716 63.515,144.498 63.125 C 144.280 62.735,144.004 62.318,143.884 62.196 C 143.765 62.075,143.667 61.907,143.667 61.823 C 143.667 61.196,143.102 61.000,141.296 61.000 C 140.106 61.000,139.500 61.062,139.500 61.183 M193.000 70.500 L 193.000 80.000 194.500 80.000 L 196.000 80.000 196.000 75.667 L 196.000 71.333 200.333 71.333 L 204.667 71.333 204.667 70.083 L 204.667 68.833 200.333 68.833 L 196.000 68.833 196.000 66.167 L 196.000 63.500 201.083 63.500 L 206.167 63.500 206.167 62.250 L 206.167 61.000 199.583 61.000 L 193.000 61.000 193.000 70.500 M236.833 61.181 C 236.833 61.407,239.152 64.897,239.352 64.972 C 239.434 65.003,239.500 65.100,239.500 65.187 C 239.500 65.341,240.141 66.328,240.353 66.500 C 240.409 66.546,240.508 66.752,240.572 66.958 C 240.636 67.165,240.759 67.333,240.845 67.333 C 240.930 67.333,241.000 67.448,241.000 67.589 C 241.000 67.729,241.106 67.884,241.235 67.934 C 241.364 67.984,241.516 68.206,241.571 68.429 C 241.627 68.651,241.747 68.833,241.837 68.833 C 241.926 68.833,242.000 68.948,242.000 69.089 C 242.000 69.229,242.106 69.384,242.235 69.434 C 242.364 69.484,242.516 69.706,242.571 69.929 C 242.627 70.151,242.747 70.333,242.837 70.333 C 242.926 70.333,243.000 70.411,243.000 70.507 C 243.000 70.704,243.685 71.721,243.875 71.806 C 243.944 71.836,244.000 73.692,244.000 75.931 L 244.000 80.000 245.500 80.000 L 247.000 80.000 247.000 75.988 C 247.000 73.014,247.054 71.916,247.208 71.744 C 247.534 71.381,247.702 71.149,248.417 70.080 C 248.783 69.532,249.140 69.058,249.208 69.028 C 249.277 68.997,249.333 68.900,249.333 68.813 C 249.333 68.604,250.024 67.621,250.292 67.450 C 250.406 67.377,250.500 67.208,250.500 67.075 C 250.500 66.942,250.574 66.833,250.663 66.833 C 250.753 66.833,250.874 66.646,250.932 66.417 C 250.989 66.188,251.097 66.000,251.172 66.000 C 251.247 66.000,251.664 65.438,252.100 64.750 C 252.535 64.063,252.948 63.500,253.018 63.500 C 253.087 63.500,253.196 63.337,253.259 63.138 C 253.322 62.939,253.441 62.695,253.523 62.596 C 253.606 62.497,253.821 62.236,254.003 62.016 C 254.721 61.146,254.517 61.000,252.583 61.000 C 251.185 61.000,250.833 61.047,250.833 61.236 C 250.833 61.366,250.777 61.497,250.708 61.528 C 250.519 61.612,249.833 62.629,249.833 62.827 C 249.833 62.922,249.760 63.000,249.670 63.000 C 249.580 63.000,249.459 63.188,249.402 63.417 C 249.344 63.646,249.230 63.833,249.149 63.833 C 249.067 63.833,249.000 63.948,249.000 64.089 C 249.000 64.229,248.894 64.384,248.765 64.434 C 248.636 64.484,248.484 64.706,248.429 64.929 C 248.373 65.151,248.253 65.333,248.163 65.333 C 248.074 65.333,248.000 65.406,248.000 65.495 C 248.000 65.584,247.625 66.209,247.167 66.885 C 246.708 67.560,246.333 68.200,246.333 68.307 C 246.333 68.413,246.260 68.500,246.170 68.500 C 246.080 68.500,245.957 68.697,245.897 68.938 C 245.795 69.341,245.773 69.351,245.612 69.063 C 245.517 68.891,245.340 68.651,245.219 68.530 C 245.099 68.409,245.000 68.202,245.000 68.071 C 245.000 67.940,244.933 67.833,244.851 67.833 C 244.770 67.833,244.656 67.646,244.598 67.417 C 244.541 67.188,244.420 67.000,244.330 67.000 C 244.240 67.000,244.167 66.885,244.167 66.745 C 244.167 66.604,244.061 66.449,243.932 66.399 C 243.802 66.350,243.651 66.127,243.595 65.905 C 243.539 65.682,243.420 65.500,243.330 65.500 C 243.240 65.500,243.167 65.385,243.167 65.245 C 243.167 65.104,243.059 64.948,242.927 64.898 C 242.795 64.847,242.639 64.587,242.580 64.319 C 242.522 64.052,242.422 63.833,242.358 63.833 C 242.295 63.833,242.059 63.496,241.833 63.083 C 241.608 62.671,241.371 62.333,241.306 62.333 C 241.242 62.333,241.139 62.175,241.078 61.982 C 240.798 61.101,240.547 61.000,238.630 61.000 C 237.449 61.000,236.833 61.062,236.833 61.181 M49.494 62.792 L 48.583 63.750 49.542 62.839 C 50.432 61.993,50.576 61.833,50.453 61.833 C 50.427 61.833,49.995 62.265,49.494 62.792 M111.639 63.847 C 111.669 63.931,111.793 64.000,111.913 64.000 C 112.316 64.000,113.166 65.146,113.184 65.714 C 113.251 67.724,112.617 68.388,110.550 68.475 C 109.789 68.508,109.167 68.602,109.167 68.684 C 109.167 68.766,108.342 68.833,107.333 68.833 L 105.500 68.833 105.500 66.144 L 105.500 63.454 108.542 63.574 C 110.215 63.641,111.608 63.764,111.639 63.847 M47.997 64.047 C 47.766 64.250,47.354 64.590,47.080 64.801 C 46.807 65.012,46.733 65.112,46.917 65.024 C 47.264 64.856,48.646 63.682,48.500 63.679 C 48.454 63.678,48.228 63.844,47.997 64.047 M45.867 65.572 C 45.093 66.119,44.984 66.275,45.638 65.901 C 45.943 65.726,46.271 65.490,46.367 65.375 C 46.613 65.081,46.497 65.126,45.867 65.572 M123.292 65.947 C 123.040 65.988,122.833 66.084,122.833 66.160 C 122.833 66.235,122.638 66.346,122.400 66.406 C 121.934 66.523,120.333 67.999,120.333 68.311 C 120.333 68.415,120.260 68.500,120.170 68.500 C 120.080 68.500,119.957 68.706,119.897 68.958 C 119.837 69.210,119.718 69.505,119.633 69.613 C 119.548 69.722,119.435 70.228,119.382 70.738 C 119.330 71.249,119.222 71.667,119.143 71.667 C 118.955 71.667,118.957 74.453,119.145 74.570 C 119.224 74.619,119.341 75.111,119.403 75.663 C 119.465 76.215,119.580 76.667,119.657 76.667 C 119.734 76.667,119.846 76.861,119.905 77.098 C 120.028 77.586,120.194 77.819,120.948 78.561 C 121.707 79.308,121.892 79.444,122.346 79.585 C 122.568 79.655,122.803 79.795,122.869 79.897 C 123.023 80.139,128.626 80.157,128.798 79.917 C 128.863 79.825,129.201 79.606,129.548 79.429 C 130.320 79.036,131.451 77.839,131.596 77.260 C 131.655 77.025,131.770 76.833,131.851 76.833 C 131.933 76.833,132.000 76.571,132.000 76.250 L 132.000 75.667 130.506 75.667 C 129.125 75.667,128.997 75.695,128.817 76.042 C 128.532 76.588,128.088 76.971,127.598 77.095 C 127.361 77.154,127.167 77.270,127.167 77.351 C 127.167 77.545,124.715 77.546,124.595 77.352 C 124.544 77.270,124.308 77.155,124.070 77.095 C 123.479 76.946,122.524 75.869,122.399 75.208 C 122.342 74.910,122.230 74.667,122.148 74.667 C 122.067 74.667,122.000 74.442,122.000 74.167 L 122.000 73.667 127.000 73.667 L 132.000 73.667 132.000 72.000 C 132.000 71.000,131.933 70.333,131.833 70.333 C 131.742 70.333,131.667 70.176,131.667 69.984 C 131.667 69.056,129.813 66.725,128.831 66.418 C 128.603 66.347,128.363 66.205,128.298 66.103 C 128.178 65.915,124.231 65.792,123.292 65.947 M159.273 66.078 C 159.010 66.218,158.707 66.333,158.598 66.333 C 158.401 66.333,157.978 66.627,157.275 67.250 C 156.691 67.769,156.030 68.739,155.900 69.269 C 155.835 69.533,155.700 69.804,155.599 69.869 C 155.342 70.036,155.347 75.968,155.604 76.131 C 155.707 76.196,155.844 76.494,155.909 76.792 C 155.974 77.090,156.090 77.333,156.169 77.333 C 156.247 77.333,156.358 77.481,156.415 77.663 C 156.509 77.956,157.241 78.764,157.872 79.269 C 158.844 80.047,164.230 80.540,164.633 79.888 C 164.699 79.781,164.959 79.642,165.210 79.578 C 165.461 79.515,165.667 79.411,165.667 79.347 C 165.667 79.283,166.004 78.993,166.417 78.702 C 166.829 78.411,167.167 78.059,167.167 77.920 C 167.167 77.781,167.237 77.667,167.322 77.667 C 167.408 77.667,167.530 77.498,167.595 77.292 C 167.659 77.085,167.781 76.872,167.865 76.818 C 167.950 76.763,168.063 76.292,168.117 75.771 C 168.170 75.250,168.279 74.784,168.357 74.735 C 168.545 74.619,168.543 71.167,168.355 71.167 C 168.275 71.167,168.172 70.784,168.127 70.316 C 168.082 69.847,167.970 69.416,167.879 69.357 C 167.787 69.298,167.654 69.066,167.584 68.841 C 167.514 68.616,167.372 68.343,167.270 68.234 C 167.167 68.124,166.897 67.802,166.668 67.517 C 166.440 67.233,166.157 67.000,166.038 67.000 C 165.920 67.000,165.782 66.894,165.733 66.765 C 165.683 66.636,165.442 66.480,165.198 66.418 C 164.953 66.357,164.699 66.219,164.633 66.112 C 164.433 65.787,159.870 65.758,159.273 66.078 M211.875 65.944 C 211.669 65.987,211.500 66.093,211.500 66.178 C 211.500 66.264,211.355 66.333,211.179 66.333 C 211.002 66.333,210.745 66.446,210.607 66.583 C 210.470 66.721,210.303 66.833,210.237 66.833 C 210.079 66.833,209.100 67.847,208.949 68.167 C 208.884 68.304,208.677 68.671,208.489 68.981 C 207.358 70.853,207.546 76.167,208.790 77.470 C 208.905 77.591,209.000 77.770,209.000 77.867 C 209.000 78.176,210.743 79.667,211.103 79.667 C 211.215 79.667,211.337 79.760,211.375 79.875 C 211.471 80.162,216.956 80.175,217.133 79.888 C 217.199 79.781,217.459 79.642,217.710 79.578 C 217.961 79.515,218.167 79.395,218.167 79.310 C 218.167 79.225,218.298 79.107,218.458 79.046 C 218.882 78.886,219.603 78.129,219.739 77.702 C 219.803 77.499,219.920 77.333,219.998 77.333 C 220.076 77.333,220.193 77.090,220.258 76.792 C 220.322 76.494,220.460 76.196,220.563 76.131 C 220.831 75.961,220.823 70.033,220.555 69.867 C 220.448 69.801,220.308 69.541,220.245 69.290 C 220.182 69.039,220.064 68.833,219.982 68.833 C 219.900 68.833,219.833 68.736,219.833 68.617 C 219.833 68.368,219.394 67.753,218.933 67.356 C 218.759 67.206,218.485 66.959,218.325 66.808 C 218.164 66.657,217.857 66.478,217.641 66.411 C 217.426 66.343,217.197 66.205,217.131 66.103 C 217.011 65.914,212.637 65.782,211.875 65.944 M226.275 66.402 C 225.570 67.128,225.500 67.137,225.500 66.500 L 225.500 66.000 224.250 66.000 L 223.000 66.000 223.000 73.000 L 223.000 80.000 224.333 80.000 L 225.667 80.000 225.667 75.917 C 225.667 73.671,225.732 71.833,225.813 71.833 C 225.893 71.833,225.994 71.406,226.037 70.883 C 226.081 70.361,226.203 69.905,226.308 69.870 C 226.414 69.834,226.500 69.710,226.500 69.594 C 226.500 68.832,228.786 67.983,229.028 68.654 C 229.138 68.959,230.000 69.060,230.000 68.768 C 230.000 68.621,230.072 68.500,230.159 68.500 C 230.247 68.500,230.367 68.237,230.428 67.917 C 230.488 67.596,230.604 67.333,230.685 67.333 C 230.943 67.333,230.845 66.488,230.554 66.196 C 230.338 65.980,229.890 65.904,228.565 65.860 L 226.856 65.804 226.275 66.402 M256.958 65.942 C 256.798 65.987,256.667 66.094,256.667 66.179 C 256.667 66.264,256.522 66.333,256.345 66.333 C 256.168 66.333,255.911 66.446,255.774 66.583 C 255.636 66.721,255.458 66.833,255.378 66.833 C 255.161 66.833,254.167 67.901,254.167 68.133 C 254.167 68.243,254.093 68.333,254.003 68.333 C 253.913 68.333,253.793 68.521,253.735 68.750 C 253.678 68.979,253.566 69.167,253.488 69.167 C 253.409 69.167,253.295 69.543,253.234 70.004 C 253.173 70.464,253.058 70.881,252.978 70.930 C 252.898 70.979,252.833 71.911,252.833 73.000 C 252.833 74.089,252.898 75.021,252.978 75.070 C 253.058 75.119,253.173 75.536,253.234 75.996 C 253.295 76.457,253.409 76.833,253.488 76.833 C 253.566 76.833,253.678 77.021,253.735 77.250 C 253.793 77.479,253.913 77.667,254.003 77.667 C 254.093 77.667,254.167 77.764,254.167 77.884 C 254.167 78.154,255.193 79.167,255.466 79.167 C 255.576 79.167,255.667 79.237,255.667 79.322 C 255.667 79.408,255.835 79.530,256.042 79.595 C 256.248 79.659,256.470 79.795,256.536 79.897 C 256.706 80.163,261.968 80.154,262.133 79.888 C 262.199 79.781,262.459 79.642,262.710 79.578 C 262.961 79.515,263.167 79.414,263.167 79.353 C 263.167 79.292,263.431 79.100,263.754 78.926 C 264.077 78.752,264.504 78.341,264.703 78.013 C 264.903 77.685,265.114 77.379,265.174 77.333 C 266.164 76.570,266.126 68.833,265.132 68.833 C 265.059 68.833,265.000 68.731,265.000 68.606 C 265.000 68.183,263.334 66.627,262.654 66.415 C 262.432 66.345,262.197 66.205,262.131 66.103 C 262.011 65.914,257.550 65.776,256.958 65.942 M170.667 71.242 C 170.667 74.125,170.736 76.657,170.822 76.867 C 170.907 77.078,171.022 77.461,171.077 77.718 C 171.189 78.238,172.421 79.667,172.757 79.667 C 172.876 79.667,173.003 79.760,173.042 79.875 C 173.093 80.029,173.737 80.083,175.500 80.083 C 177.262 80.083,177.907 80.029,177.958 79.875 C 177.996 79.760,178.131 79.667,178.258 79.667 C 178.385 79.667,178.719 79.442,179.000 79.167 C 179.651 78.531,179.667 78.535,179.667 79.333 L 179.667 80.000 180.917 80.000 L 182.167 80.000 182.167 73.000 L 182.167 66.000 180.750 66.000 L 179.333 66.000 179.333 70.396 C 179.333 72.814,179.288 75.019,179.232 75.297 C 179.120 75.857,177.961 77.167,177.577 77.167 C 177.443 77.167,177.333 77.242,177.333 77.333 C 177.333 77.429,176.833 77.500,176.167 77.500 C 175.500 77.500,175.000 77.429,175.000 77.333 C 175.000 77.242,174.904 77.167,174.787 77.167 C 174.447 77.167,173.981 76.514,173.881 75.895 C 173.830 75.582,173.724 75.285,173.644 75.236 C 173.565 75.187,173.500 73.089,173.500 70.573 L 173.500 66.000 172.083 66.000 L 170.667 66.000 170.667 71.242 M268.000 71.323 C 268.000 74.693,268.061 76.685,268.167 76.750 C 268.258 76.807,268.333 77.040,268.333 77.268 C 268.333 78.006,269.583 79.667,270.138 79.667 C 270.230 79.667,270.337 79.760,270.375 79.875 C 270.426 80.029,271.070 80.083,272.833 80.083 C 274.596 80.083,275.240 80.029,275.291 79.875 C 275.330 79.760,275.469 79.667,275.600 79.667 C 275.732 79.667,276.100 79.398,276.420 79.069 L 277.000 78.471 277.000 79.236 L 277.000 80.000 278.250 80.000 L 279.500 80.000 279.500 72.993 L 279.500 65.987 278.125 66.035 L 276.750 66.083 276.667 70.858 C 276.589 75.327,276.562 75.657,276.250 76.016 C 275.622 76.740,275.118 77.167,274.892 77.167 C 274.768 77.167,274.667 77.242,274.667 77.333 C 274.667 77.429,274.167 77.500,273.500 77.500 C 272.833 77.500,272.333 77.429,272.333 77.333 C 272.333 77.242,272.238 77.167,272.120 77.167 C 271.758 77.167,271.299 76.483,271.209 75.809 C 271.162 75.456,271.058 75.167,270.978 75.167 C 270.898 75.167,270.833 73.104,270.833 70.583 L 270.833 66.000 269.417 66.000 L 268.000 66.000 268.000 71.323 M44.407 66.408 C 44.095 66.642,44.097 66.647,44.461 66.555 C 44.669 66.503,44.879 66.394,44.929 66.313 C 45.070 66.085,44.765 66.141,44.407 66.408 M42.250 67.423 C 41.833 67.623,41.819 67.646,42.167 67.562 C 42.639 67.446,43.170 67.176,42.917 67.179 C 42.825 67.181,42.525 67.290,42.250 67.423 M41.138 67.751 C 41.092 67.797,40.498 67.980,39.819 68.158 C 39.139 68.336,38.734 68.486,38.917 68.491 C 39.276 68.501,41.487 67.902,41.634 67.755 C 41.682 67.707,41.610 67.667,41.472 67.667 C 41.335 67.667,41.184 67.704,41.138 67.751 M36.167 68.764 L 34.417 68.980 36.000 68.909 C 36.871 68.870,37.808 68.768,38.083 68.683 C 38.739 68.481,38.319 68.498,36.167 68.764 M126.917 68.667 C 126.973 68.758,127.149 68.833,127.306 68.833 C 127.692 68.833,128.833 69.961,128.833 70.343 C 128.833 70.510,128.908 70.693,129.000 70.750 C 129.542 71.085,128.870 71.167,125.583 71.167 C 123.306 71.167,122.000 71.106,122.000 71.000 C 122.000 70.908,122.067 70.833,122.149 70.833 C 122.230 70.833,122.347 70.636,122.407 70.395 C 122.548 69.832,123.332 69.048,123.895 68.907 C 124.136 68.847,124.333 68.730,124.333 68.649 C 124.333 68.443,126.789 68.460,126.917 68.667 M163.167 68.667 C 163.167 68.758,163.265 68.833,163.386 68.833 C 163.935 68.833,165.160 70.372,165.270 71.199 C 165.329 71.644,165.442 72.048,165.522 72.097 C 165.723 72.221,165.704 73.624,165.500 73.750 C 165.408 73.807,165.333 74.081,165.333 74.360 C 165.333 75.302,164.035 77.167,163.380 77.167 C 163.263 77.167,163.167 77.242,163.167 77.333 C 163.167 77.431,162.611 77.500,161.833 77.500 C 161.056 77.500,160.500 77.431,160.500 77.333 C 160.500 77.242,160.385 77.167,160.245 77.167 C 160.104 77.167,159.949 77.061,159.899 76.932 C 159.850 76.802,159.627 76.651,159.405 76.595 C 159.182 76.539,159.000 76.388,159.000 76.259 C 159.000 76.130,158.880 75.904,158.734 75.757 C 158.587 75.611,158.427 75.193,158.378 74.829 C 158.329 74.465,158.224 74.167,158.145 74.167 C 158.065 74.167,158.000 73.642,158.000 73.000 C 158.000 72.358,158.065 71.833,158.145 71.833 C 158.224 71.833,158.329 71.535,158.378 71.171 C 158.427 70.807,158.587 70.389,158.734 70.243 C 158.880 70.096,159.000 69.870,159.000 69.741 C 159.000 69.612,159.182 69.461,159.405 69.405 C 159.627 69.349,159.850 69.198,159.899 69.068 C 159.949 68.939,160.104 68.833,160.245 68.833 C 160.385 68.833,160.500 68.758,160.500 68.667 C 160.500 68.569,161.056 68.500,161.833 68.500 C 162.611 68.500,163.167 68.569,163.167 68.667 M215.667 68.667 C 215.667 68.758,215.767 68.833,215.889 68.833 C 216.400 68.833,217.667 70.453,217.775 71.244 C 217.833 71.665,217.944 72.049,218.023 72.098 C 218.211 72.214,218.210 73.620,218.022 73.736 C 217.943 73.785,217.837 74.181,217.788 74.616 C 217.740 75.050,217.617 75.433,217.516 75.467 C 217.416 75.500,217.333 75.612,217.333 75.715 C 217.333 75.978,216.145 77.167,215.883 77.167 C 215.764 77.167,215.667 77.242,215.667 77.333 C 215.667 77.431,215.111 77.500,214.333 77.500 C 213.556 77.500,213.000 77.431,213.000 77.333 C 213.000 77.242,212.930 77.167,212.845 77.167 C 212.567 77.167,211.514 76.422,211.507 76.220 C 211.503 76.112,211.380 75.904,211.234 75.757 C 211.087 75.611,210.927 75.193,210.878 74.829 C 210.829 74.465,210.724 74.167,210.645 74.167 C 210.565 74.167,210.500 73.642,210.500 73.000 C 210.500 72.358,210.565 71.833,210.645 71.833 C 210.724 71.833,210.829 71.535,210.878 71.171 C 210.927 70.807,211.087 70.389,211.234 70.243 C 211.380 70.096,211.503 69.888,211.507 69.780 C 211.514 69.578,212.567 68.833,212.845 68.833 C 212.930 68.833,213.000 68.758,213.000 68.667 C 213.000 68.569,213.556 68.500,214.333 68.500 C 215.111 68.500,215.667 68.569,215.667 68.667 M260.667 68.667 C 260.667 68.758,260.773 68.833,260.903 68.833 C 261.242 68.833,262.407 69.982,262.762 70.667 C 263.217 71.545,263.186 74.505,262.712 75.379 C 262.314 76.113,261.249 77.167,260.905 77.167 C 260.774 77.167,260.667 77.242,260.667 77.333 C 260.667 77.430,260.139 77.500,259.417 77.500 C 258.694 77.500,258.167 77.430,258.167 77.333 C 258.167 77.242,258.060 77.167,257.929 77.167 C 257.798 77.167,257.591 77.069,257.470 76.949 C 257.349 76.829,257.119 76.682,256.958 76.621 C 256.798 76.560,256.667 76.396,256.667 76.255 C 256.667 76.115,256.597 76.000,256.511 76.000 C 256.426 76.000,256.303 75.831,256.239 75.625 C 256.174 75.419,256.038 75.196,255.936 75.131 C 255.816 75.054,255.750 74.298,255.750 73.000 C 255.750 71.702,255.816 70.946,255.936 70.869 C 256.038 70.804,256.174 70.581,256.239 70.375 C 256.303 70.169,256.426 70.000,256.511 70.000 C 256.597 70.000,256.667 69.885,256.667 69.745 C 256.667 69.604,256.798 69.440,256.958 69.379 C 257.119 69.318,257.349 69.171,257.470 69.051 C 257.591 68.931,257.798 68.833,257.929 68.833 C 258.060 68.833,258.167 68.758,258.167 68.667 C 258.167 68.570,258.694 68.500,259.417 68.500 C 260.139 68.500,260.667 68.570,260.667 68.667 M32.333 70.320 C 32.333 71.824,32.422 72.168,32.809 72.164 C 33.025 72.162,33.036 72.131,32.859 72.019 C 32.680 71.906,32.710 71.806,33.001 71.534 C 33.203 71.346,33.317 71.108,33.253 71.005 C 33.190 70.903,33.209 70.728,33.296 70.618 C 33.383 70.507,33.503 70.098,33.563 69.708 L 33.671 69.000 33.002 69.000 L 32.333 69.000 32.333 70.320 M109.425 71.482 C 109.512 71.564,110.226 71.662,111.012 71.700 C 112.465 71.772,113.667 72.403,113.667 73.096 C 113.667 73.211,113.747 73.332,113.845 73.365 C 113.946 73.399,114.024 73.859,114.024 74.417 C 114.024 74.974,113.946 75.435,113.845 75.468 C 113.747 75.501,113.667 75.622,113.667 75.737 C 113.667 76.418,112.464 77.062,111.053 77.136 C 110.291 77.176,109.667 77.274,109.667 77.354 C 109.667 77.434,108.729 77.500,107.583 77.500 L 105.500 77.500 105.500 74.417 L 105.500 71.333 107.383 71.333 C 108.419 71.333,109.338 71.400,109.425 71.482 M32.542 72.453 C 32.427 72.494,32.333 72.650,32.333 72.800 C 32.333 73.047,32.359 73.046,32.615 72.790 C 32.916 72.488,32.882 72.332,32.542 72.453 " stroke="none" fill="#f49cbc" fill-rule="evenodd"></path><path id="path1" d="M32.412 8.347 C 29.858 10.923,29.833 10.949,29.833 11.071 C 29.833 11.122,29.383 11.604,28.833 12.140 C 28.283 12.677,27.833 13.175,27.833 13.247 C 27.833 13.319,27.665 13.537,27.458 13.731 C 27.252 13.925,26.823 14.421,26.504 14.833 C 26.186 15.246,25.830 15.643,25.713 15.717 C 25.596 15.790,25.500 15.927,25.500 16.021 C 25.500 16.115,25.275 16.417,25.000 16.692 C 24.725 16.967,24.500 17.255,24.500 17.332 C 24.500 17.466,24.080 18.011,23.458 18.684 C 23.298 18.858,23.167 19.070,23.167 19.155 C 23.167 19.240,23.073 19.411,22.958 19.534 C 22.567 19.957,22.000 20.820,22.000 20.993 C 22.000 21.089,21.926 21.167,21.837 21.167 C 21.747 21.167,21.627 21.349,21.571 21.571 C 21.516 21.794,21.364 22.016,21.235 22.066 C 21.106 22.116,21.000 22.271,21.000 22.411 C 21.000 22.552,20.941 22.667,20.869 22.667 C 20.797 22.667,20.591 22.905,20.411 23.196 C 20.231 23.488,19.918 23.994,19.717 24.321 C 19.515 24.649,19.178 25.254,18.967 25.667 C 18.756 26.079,18.540 26.454,18.487 26.500 C 18.433 26.546,18.208 26.958,17.987 27.417 C 17.765 27.875,17.533 28.288,17.472 28.335 C 17.410 28.382,17.308 28.626,17.245 28.877 C 17.182 29.128,17.070 29.333,16.995 29.333 C 16.921 29.333,16.810 29.558,16.750 29.833 C 16.690 30.108,16.577 30.333,16.500 30.333 C 16.423 30.333,16.307 30.577,16.242 30.875 C 16.177 31.173,16.021 31.565,15.895 31.745 C 15.770 31.926,15.667 32.207,15.667 32.370 C 15.667 32.533,15.596 32.667,15.510 32.667 C 15.424 32.667,15.303 33.004,15.241 33.417 C 15.179 33.829,15.081 34.167,15.022 34.167 C 14.887 34.167,14.555 34.927,14.403 35.583 C 14.339 35.858,14.229 36.158,14.159 36.250 C 14.088 36.342,13.976 36.717,13.910 37.083 C 13.844 37.450,13.732 37.825,13.661 37.917 C 13.590 38.008,13.479 38.515,13.414 39.042 C 13.348 39.569,13.234 40.000,13.160 40.000 C 13.086 40.000,12.972 40.675,12.908 41.500 C 12.843 42.325,12.725 43.000,12.645 43.000 C 12.565 43.000,12.500 44.688,12.500 46.750 C 12.500 48.813,12.564 50.500,12.643 50.500 C 12.721 50.500,12.836 51.041,12.897 51.701 C 12.959 52.362,13.073 52.943,13.151 52.993 C 13.229 53.043,13.346 53.402,13.411 53.791 C 13.476 54.180,13.597 54.541,13.681 54.592 C 13.765 54.644,13.833 54.829,13.833 55.003 C 13.833 55.178,13.974 55.455,14.147 55.619 C 14.319 55.782,14.666 56.329,14.918 56.833 C 16.539 60.076,19.304 63.254,22.314 65.333 C 22.645 65.563,22.942 65.806,22.972 65.875 C 23.003 65.944,23.134 66.000,23.264 66.000 C 23.394 66.000,23.517 66.019,23.537 66.042 C 23.557 66.065,23.613 69.008,23.662 72.583 L 23.750 79.083 24.612 79.077 C 25.086 79.073,25.648 78.984,25.862 78.878 C 26.075 78.772,26.606 78.529,27.042 78.338 C 27.839 77.989,28.111 77.722,27.509 77.879 C 27.193 77.962,27.184 77.832,27.171 72.913 L 27.158 67.861 28.204 68.106 C 29.773 68.474,33.155 69.032,33.376 68.958 C 33.482 68.923,32.970 68.596,32.238 68.232 C 27.397 65.827,23.600 61.440,22.084 56.500 C 21.929 55.996,21.738 55.396,21.659 55.167 C 20.684 52.328,20.736 46.838,21.774 43.167 C 24.236 34.452,32.022 25.796,43.991 18.466 C 45.113 17.778,45.188 17.585,44.583 16.932 C 44.354 16.685,44.167 16.415,44.167 16.333 C 44.167 16.250,43.904 15.928,43.583 15.616 C 43.262 15.305,43.000 15.000,43.000 14.940 C 43.000 14.880,42.818 14.625,42.595 14.374 C 42.372 14.122,42.031 13.729,41.837 13.500 C 40.223 11.599,34.881 6.167,34.625 6.167 C 34.597 6.167,33.602 7.148,32.412 8.347 M82.333 43.417 L 82.333 80.667 83.417 80.667 L 84.500 80.667 84.500 43.417 L 84.500 6.167 83.417 6.167 L 82.333 6.167 82.333 43.417 " stroke="none" fill="#38cdf0" fill-rule="evenodd"></path><path id="path2" d="M58.875 10.951 C 58.669 10.991,58.500 11.083,58.500 11.157 C 58.500 11.231,58.200 11.339,57.833 11.397 C 57.467 11.456,57.167 11.578,57.167 11.669 C 57.167 11.759,57.035 11.836,56.875 11.839 C 56.715 11.842,56.283 11.990,55.917 12.167 C 55.550 12.344,55.119 12.491,54.958 12.494 C 54.798 12.497,54.667 12.569,54.667 12.653 C 54.667 12.738,54.442 12.856,54.167 12.917 C 53.892 12.977,53.667 13.087,53.667 13.162 C 53.667 13.236,53.460 13.344,53.208 13.401 C 52.727 13.511,48.979 15.332,48.832 15.527 C 48.785 15.589,48.541 15.692,48.290 15.755 C 48.039 15.818,47.833 15.928,47.833 16.000 C 47.833 16.072,47.646 16.178,47.417 16.235 C 47.188 16.293,47.000 16.407,47.000 16.490 C 47.000 16.573,46.775 16.690,46.500 16.750 C 46.225 16.810,46.000 16.923,46.000 17.000 C 46.000 17.077,45.769 17.191,45.486 17.253 C 44.835 17.396,44.913 17.859,45.796 19.082 C 55.747 32.862,58.819 47.546,53.752 57.117 C 50.004 64.197,43.343 68.546,35.625 68.953 C 33.747 69.052,33.354 69.214,34.533 69.403 C 34.918 69.464,35.324 69.590,35.436 69.682 C 35.547 69.775,36.169 69.895,36.819 69.949 C 37.469 70.004,38.000 70.112,38.000 70.191 C 38.000 70.269,39.237 70.333,40.750 70.333 C 42.262 70.333,43.500 70.269,43.500 70.191 C 43.500 70.113,44.074 70.000,44.775 69.941 C 45.476 69.882,46.135 69.762,46.241 69.674 C 46.347 69.586,46.748 69.464,47.133 69.403 C 47.518 69.341,47.833 69.234,47.833 69.164 C 47.833 69.094,48.093 68.988,48.410 68.929 C 48.727 68.870,49.195 68.712,49.451 68.578 C 49.707 68.445,50.010 68.335,50.125 68.334 C 50.240 68.334,50.333 68.264,50.333 68.180 C 50.333 68.096,50.558 67.977,50.833 67.917 C 51.108 67.856,51.333 67.755,51.333 67.692 C 51.333 67.628,51.671 67.392,52.083 67.167 C 52.496 66.941,52.833 66.699,52.833 66.628 C 52.833 66.558,52.908 66.500,52.999 66.500 C 53.205 66.500,54.626 65.424,55.117 64.895 C 55.319 64.678,55.529 64.500,55.584 64.500 C 55.744 64.500,56.833 63.397,56.835 63.233 C 56.836 63.151,57.135 62.821,57.500 62.500 C 57.865 62.179,58.164 61.823,58.165 61.708 C 58.166 61.594,58.223 61.499,58.292 61.499 C 58.360 61.498,58.603 61.217,58.832 60.874 C 59.060 60.531,59.285 60.212,59.332 60.167 C 59.626 59.878,60.667 57.807,60.667 57.511 C 60.667 57.413,60.736 57.333,60.820 57.333 C 60.904 57.333,61.023 57.108,61.083 56.833 C 61.144 56.558,61.259 56.333,61.339 56.333 C 61.419 56.333,61.534 56.071,61.594 55.750 C 61.655 55.429,61.770 55.167,61.850 55.167 C 61.930 55.167,62.044 54.867,62.103 54.500 C 62.161 54.133,62.270 53.833,62.344 53.833 C 62.419 53.833,62.530 53.496,62.592 53.083 C 62.654 52.671,62.762 52.333,62.833 52.333 C 62.904 52.333,63.013 51.996,63.075 51.583 C 63.136 51.171,63.257 50.833,63.344 50.833 C 63.430 50.833,63.500 50.623,63.500 50.367 C 63.500 50.110,63.575 49.825,63.666 49.734 C 63.757 49.643,63.880 49.103,63.939 48.534 C 63.999 47.965,64.105 47.500,64.175 47.500 C 64.246 47.500,64.357 46.844,64.422 46.042 C 64.486 45.240,64.624 44.478,64.728 44.349 C 64.996 44.017,64.995 29.481,64.727 29.151 C 64.622 29.022,64.482 28.207,64.415 27.340 C 64.347 26.473,64.233 25.648,64.161 25.507 C 64.089 25.365,63.947 24.688,63.844 24.000 C 63.552 22.032,63.472 21.667,63.337 21.667 C 63.267 21.667,63.158 21.142,63.095 20.500 C 63.032 19.858,62.918 19.333,62.842 19.333 C 62.767 19.333,62.654 18.922,62.591 18.419 C 62.528 17.917,62.409 17.463,62.327 17.412 C 62.244 17.361,62.127 16.948,62.067 16.493 C 62.006 16.039,61.899 15.667,61.828 15.667 C 61.756 15.667,61.646 15.292,61.583 14.833 C 61.520 14.375,61.405 14.000,61.328 14.000 C 61.250 14.000,61.136 13.662,61.075 13.250 C 61.013 12.838,60.902 12.500,60.829 12.500 C 60.756 12.500,60.643 12.181,60.578 11.792 C 60.419 10.843,60.143 10.707,58.875 10.951 M46.542 71.290 C 45.969 71.323,45.500 71.410,45.500 71.484 C 45.500 71.558,44.959 71.669,44.299 71.730 C 43.638 71.792,43.057 71.907,43.007 71.987 C 42.957 72.067,42.485 72.187,41.958 72.252 C 41.431 72.318,41.000 72.430,41.000 72.500 C 41.000 72.571,40.662 72.679,40.250 72.741 C 39.837 72.803,39.500 72.915,39.500 72.989 C 39.500 73.063,39.200 73.172,38.833 73.231 C 38.467 73.289,38.167 73.405,38.167 73.489 C 38.167 73.572,37.942 73.690,37.668 73.750 C 37.028 73.890,34.167 75.317,34.167 75.495 C 34.167 75.570,33.996 75.673,33.788 75.725 C 33.580 75.778,33.256 75.964,33.067 76.140 C 32.879 76.315,32.561 76.511,32.362 76.574 C 32.163 76.637,32.000 76.759,32.000 76.845 C 32.000 76.930,31.885 77.000,31.745 77.000 C 31.604 77.000,31.446 77.112,31.394 77.250 C 31.341 77.387,31.199 77.500,31.078 77.500 C 30.958 77.500,30.634 77.725,30.359 78.000 C 30.084 78.275,29.808 78.500,29.745 78.500 C 29.546 78.500,27.833 80.288,27.833 80.495 C 27.833 80.713,31.176 80.561,31.333 80.336 C 31.379 80.270,31.940 80.164,32.579 80.100 C 33.218 80.036,33.780 79.921,33.829 79.845 C 33.877 79.769,34.310 79.653,34.792 79.588 C 35.273 79.522,35.667 79.405,35.667 79.328 C 35.667 79.250,36.004 79.136,36.417 79.075 C 36.829 79.013,37.167 78.904,37.167 78.833 C 37.167 78.762,37.426 78.655,37.743 78.596 C 38.060 78.536,38.529 78.378,38.785 78.245 C 39.041 78.111,39.344 78.002,39.458 78.001 C 39.573 78.000,39.667 77.931,39.667 77.847 C 39.667 77.762,39.892 77.644,40.167 77.583 C 40.442 77.523,40.667 77.410,40.667 77.333 C 40.667 77.256,40.892 77.144,41.167 77.083 C 41.442 77.023,41.667 76.904,41.667 76.820 C 41.667 76.736,41.779 76.667,41.917 76.667 C 42.054 76.667,42.167 76.600,42.167 76.518 C 42.167 76.436,42.354 76.322,42.583 76.265 C 42.813 76.207,43.000 76.093,43.000 76.010 C 43.000 75.927,43.219 75.812,43.486 75.753 C 43.753 75.694,44.014 75.538,44.064 75.406 C 44.115 75.275,44.271 75.167,44.411 75.167 C 44.552 75.167,44.667 75.097,44.667 75.011 C 44.667 74.926,44.833 74.803,45.035 74.739 C 45.238 74.674,45.619 74.407,45.881 74.144 C 46.144 73.882,46.413 73.667,46.479 73.667 C 46.545 73.667,46.912 73.367,47.293 73.000 C 47.675 72.633,48.048 72.333,48.123 72.333 C 48.336 72.333,48.833 71.690,48.833 71.415 C 48.833 71.157,48.863 71.158,46.542 71.290 " stroke="none" fill="#fbdc2a" fill-rule="evenodd"></path><path id="path3" d="M12.875 55.787 C 12.577 55.824,12.333 55.916,12.333 55.992 C 12.333 56.067,11.996 56.179,11.583 56.241 C 11.171 56.303,10.833 56.424,10.833 56.510 C 10.833 56.596,10.665 56.669,10.458 56.672 C 10.252 56.675,9.783 56.823,9.417 57.000 C 9.050 57.177,8.689 57.325,8.615 57.328 C 8.420 57.336,6.600 58.223,6.498 58.360 C 6.452 58.422,6.208 58.525,5.957 58.588 C 5.705 58.651,5.500 58.764,5.500 58.838 C 5.500 58.913,5.275 59.023,5.000 59.083 C 4.725 59.144,4.500 59.256,4.500 59.333 C 4.500 59.410,4.275 59.523,4.000 59.583 C 3.725 59.644,3.500 59.761,3.500 59.843 C 3.500 59.926,3.313 60.041,3.083 60.098 C 2.854 60.156,2.667 60.262,2.667 60.333 C 2.667 60.405,2.479 60.511,2.250 60.568 C 2.021 60.626,1.833 60.747,1.833 60.837 C 1.833 60.926,1.718 61.000,1.578 61.000 C 1.438 61.000,1.280 61.112,1.227 61.250 C 1.174 61.387,1.038 61.500,0.924 61.500 C 0.022 61.500,-0.278 63.255,0.497 64.000 C 0.728 64.222,1.333 65.172,1.333 65.313 C 1.333 65.400,1.390 65.497,1.458 65.528 C 1.527 65.558,1.955 66.071,2.410 66.667 C 2.865 67.262,3.333 67.810,3.452 67.883 C 3.570 67.957,3.667 68.097,3.667 68.194 C 3.667 68.292,3.967 68.663,4.333 69.019 C 4.700 69.375,5.000 69.746,5.000 69.843 C 5.000 70.063,9.094 74.167,9.314 74.167 C 9.402 74.167,9.699 74.392,9.974 74.667 C 10.249 74.942,10.538 75.167,10.617 75.167 C 10.695 75.167,10.888 75.317,11.045 75.500 C 11.202 75.683,11.435 75.833,11.564 75.833 C 11.692 75.833,11.841 75.946,11.894 76.083 C 11.946 76.221,12.104 76.333,12.245 76.333 C 12.385 76.333,12.500 76.391,12.500 76.460 C 12.500 76.530,12.644 76.662,12.821 76.752 C 14.335 77.528,14.758 77.767,14.806 77.875 C 14.836 77.944,14.949 78.000,15.056 78.001 C 15.162 78.002,15.459 78.111,15.715 78.245 C 15.971 78.378,16.440 78.536,16.757 78.596 C 17.074 78.655,17.333 78.767,17.333 78.844 C 17.333 78.921,17.785 79.035,18.337 79.097 C 18.889 79.159,19.381 79.276,19.430 79.355 C 19.549 79.547,24.167 79.543,24.167 79.351 C 24.167 79.269,24.054 79.159,23.917 79.106 C 23.701 79.023,23.667 78.163,23.667 72.769 C 23.667 66.455,23.638 66.000,23.246 66.000 C 23.126 66.000,23.003 65.944,22.972 65.875 C 22.942 65.806,22.645 65.563,22.314 65.333 C 19.260 63.223,16.557 60.099,14.852 56.708 C 14.289 55.588,14.329 55.607,12.875 55.787 " stroke="none" fill="#0df4b4" fill-rule="evenodd"></path><path id="path4" d="M281.244 14.750 C 281.244 19.058,281.265 20.845,281.291 18.720 C 281.318 16.595,281.318 13.070,281.292 10.886 C 281.265 8.703,281.244 10.442,281.244 14.750 M43.750 18.601 C 33.380 25.147,26.693 31.861,23.301 39.132 C 17.984 50.532,21.805 62.916,32.290 68.266 L 33.738 69.005 36.077 68.753 C 49.985 67.258,58.346 55.501,55.695 41.167 C 54.274 33.485,51.124 26.461,45.783 19.063 C 45.444 18.594,45.167 18.125,45.167 18.022 C 45.167 17.739,45.021 17.799,43.750 18.601 M281.244 36.083 C 281.244 41.033,281.266 43.034,281.292 40.530 C 281.318 38.026,281.317 33.976,281.292 31.530 C 281.266 29.084,281.244 31.133,281.244 36.083 M27.171 72.917 L 27.185 77.972 27.655 77.837 C 28.086 77.713,28.764 77.334,29.299 76.918 C 29.896 76.453,31.497 74.724,31.499 74.542 C 31.499 74.427,31.558 74.333,31.629 74.333 C 31.835 74.333,32.421 73.139,32.368 72.826 C 32.341 72.669,32.441 72.495,32.589 72.438 C 32.836 72.343,32.836 72.312,32.584 72.061 C 32.363 71.839,32.321 71.508,32.364 70.324 L 32.417 68.861 30.750 68.594 C 29.833 68.447,28.650 68.222,28.121 68.094 L 27.158 67.861 27.171 72.917 " stroke="none" fill="#99aecf" fill-rule="evenodd"></path></g></svg>